<?xml version="1.0" encoding="utf-8"?>
<!-- Generator: Adobe Illustrator 16.0.0, SVG Export Plug-In . SVG Version: 6.00 Build 0)  -->
<!DOCTYPE svg PUBLIC "-//W3C//DTD SVG 1.1//EN" "http://www.w3.org/Graphics/SVG/1.1/DTD/svg11.dtd">
<svg version="1.1" id="Capa_1" xmlns="http://www.w3.org/2000/svg" xmlns:xlink="http://www.w3.org/1999/xlink" x="0px" y="0px"
	 width="841.89px" height="595.28px" viewBox="0 0 841.89 595.28" enable-background="new 0 0 841.89 595.28" xml:space="preserve">
<g>
	<g>
		<path d="M211.745,110.209l66.948-32.468h6.544v232.047c0,15.27,0.67,24.795,2.013,28.576c1.342,3.77,4.027,6.711,8.054,8.803
			c4.027,2.104,12.249,3.227,24.665,3.395v7.551h-103.19v-7.551c12.92-0.168,21.27-1.252,25.045-3.266s6.421-4.66,7.932-7.926
			c1.51-3.277,2.258-13.139,2.258-29.582V161.301c0-19.967-0.671-32.803-2.013-38.508c-1.007-4.195-2.762-7.337-5.279-9.435
			c-2.518-2.097-5.538-3.149-9.061-3.149c-5.034,0-12.003,2.097-20.896,6.292L211.745,110.209z"/>
		<path d="M524.719,303.839c-1.879,12.778-6.092,23.162-12.732,31.126c-9.182,11.035-19.689,16.584-31.454,16.584
			c-9.913,0-18.302-3.168-25.175-9.512c-9.391-8.926-16.457-20.947-21.213-36.152c-4.827-15.198-7.202-29.208-7.202-42.154
			c0-11.242,1.187-25.975,3.497-44.284c11.63-7.067,20.354-11.694,26.17-13.875c5.885-2.181,11.363-3.239,16.391-3.239
			c16.916,0,30.002,8.396,39.123,25.311c1.754,3.239,3.291,6.634,4.709,10.113h41.432c-3.361-11.552-8.912-21.71-16.805-30.403
			c-13.746-15.063-30.066-22.664-48.834-22.664c-19.625,0-39.186,6.744-58.615,20.16c4.82-18.638,10.898-34.629,18.107-48.046
			c7.202-13.48,16.32-25.64,27.292-36.542c10.972-10.906,22.136-19.034,33.507-24.388c11.299-5.35,25.838-8.918,43.611-10.57v-7.535
			h-11.828c-14.404,0-30.002,2.975-46.652,8.922c-16.721,5.947-34.236,17.512-52.609,34.626
			c-18.366,17.05-32.441,36.746-42.29,58.881c-9.777,22.136-14.733,45.536-14.733,70.182c0,38.463,12.881,69.717,38.527,93.905
			c13.081,12.424,29.008,18.637,47.839,18.637c27.492,0,49.627-11.5,66.414-34.5c5.809-7.814,10.324-16.023,13.707-24.581H524.719z"
			/>
	</g>
	<text transform="matrix(1 0 0 1 470.8545 291.3315)" font-family="'Aparajita'" font-size="89.2128">Notaría</text>
	<text transform="matrix(1 0 0 1 192.6177 452.75)" font-family="'Aparajita'" font-size="68.7269">Del Círculo de Bogotá</text>
	<g>
		<line x1="205.607" y1="391.768" x2="678.422" y2="391.768"/>
		<path d="M205.607,391.768c0,0,7.388-0.105,20.316-0.29c6.464-0.074,14.313-0.163,23.317-0.266
			c9.004-0.085,19.162-0.181,30.244-0.285c11.082-0.077,23.086-0.16,35.784-0.248c12.698-0.085,26.088-0.205,39.94-0.21
			c27.704-0.063,57.255-0.132,86.806-0.199c29.551,0.066,59.102,0.134,86.806,0.197c13.853,0.005,27.242,0.118,39.94,0.207
			c12.697,0.088,24.702,0.172,35.784,0.25c11.081,0.059,21.239,0.177,30.243,0.285c9.004,0.104,16.854,0.192,23.317,0.267
			c12.929,0.186,20.316,0.292,20.316,0.292s-7.388,0.106-20.316,0.292c-6.464,0.074-14.313,0.163-23.317,0.267
			c-9.004,0.108-19.162,0.227-30.243,0.285c-11.082,0.078-23.087,0.162-35.784,0.25c-12.698,0.089-26.088,0.202-39.94,0.207
			c-27.704,0.063-57.255,0.131-86.806,0.197c-29.551-0.067-59.102-0.136-86.806-0.199c-13.852-0.005-27.242-0.125-39.94-0.21
			c-12.698-0.088-24.703-0.171-35.784-0.248c-11.082-0.104-21.24-0.2-30.244-0.285c-9.004-0.103-16.854-0.191-23.317-0.266
			C212.995,391.873,205.607,391.768,205.607,391.768z"/>
	</g>
	<g>
		<line x1="579.631" y1="101.452" x2="579.631" y2="78.69"/>
		<path d="M579.48,101.452c0,0-0.179-1.422-0.384-3.557c-0.108-1.067-0.238-2.312-0.348-3.645c-0.126-1.334-0.214-2.756-0.318-4.179
			c-0.087-1.423-0.342-2.845-0.362-4.179c0-1.333,0.16-2.578,0.358-3.645c0.21-1.067,0.441-1.956,0.666-2.579
			c0.213-0.623,0.388-0.978,0.388-0.978h0.301c0,0,0.175,0.355,0.388,0.978c0.225,0.623,0.456,1.512,0.666,2.579
			c0.198,1.067,0.358,2.312,0.358,3.645c-0.021,1.334-0.275,2.756-0.362,4.179c-0.104,1.422-0.192,2.845-0.318,4.179
			c-0.109,1.333-0.239,2.578-0.348,3.645c-0.205,2.134-0.384,3.557-0.384,3.557H579.48z"/>
	</g>
	<g>
		<line x1="620.371" y1="109.328" x2="631.93" y2="89.719"/>
		<path d="M620.242,109.252c0,0,0.567-1.316,1.475-3.259c0.448-0.975,0.969-2.113,1.552-3.317c0.569-1.213,1.215-2.483,1.848-3.762
			c0.647-1.27,1.15-2.625,1.811-3.785c0.677-1.148,1.447-2.14,2.159-2.958c0.724-0.812,1.374-1.461,1.884-1.883
			c0.499-0.428,0.831-0.646,0.831-0.646l0.258,0.152c0,0-0.029,0.396-0.162,1.04c-0.122,0.65-0.375,1.534-0.735,2.56
			c-0.371,1.02-0.865,2.173-1.543,3.323c-0.694,1.139-1.637,2.234-2.434,3.416c-0.813,1.173-1.611,2.354-2.396,3.438
			c-0.771,1.094-1.516,2.1-2.15,2.964c-1.261,1.734-2.138,2.869-2.138,2.869L620.242,109.252z"/>
	</g>
	<g>
		<line x1="654.041" y1="136.048" x2="673.639" y2="124.487"/>
		<path d="M653.965,135.919c0,0,1.134-0.876,2.867-2.137c0.863-0.635,1.869-1.379,2.962-2.15c1.084-0.786,2.264-1.585,3.437-2.397
			c1.18-0.798,2.275-1.74,3.413-2.435c1.148-0.677,2.302-1.171,3.321-1.543c1.025-0.36,1.908-0.613,2.559-0.735
			c0.644-0.133,1.039-0.163,1.039-0.163l0.152,0.259c0,0-0.217,0.332-0.645,0.831c-0.422,0.51-1.07,1.161-1.882,1.884
			c-0.818,0.712-1.809,1.482-2.957,2.16c-1.158,0.66-2.513,1.163-3.782,1.81c-1.277,0.633-2.547,1.279-3.76,1.848
			c-1.203,0.584-2.341,1.104-3.314,1.553c-1.941,0.907-3.258,1.475-3.258,1.476L653.965,135.919z"/>
	</g>
	<g>
		<line x1="668.244" y1="176.641" x2="691.004" y2="176.771"/>
		<path d="M668.245,176.491c0,0,1.424-0.171,3.559-0.364c1.067-0.102,2.313-0.225,3.646-0.326c1.335-0.119,2.758-0.199,4.181-0.295
			c1.423-0.079,2.847-0.326,4.181-0.339c1.333,0.008,2.577,0.175,3.643,0.379c1.066,0.217,1.954,0.453,2.575,0.681
			c0.621,0.216,0.976,0.394,0.976,0.394l-0.002,0.3c0,0-0.356,0.173-0.98,0.382c-0.623,0.221-1.514,0.447-2.582,0.652
			c-1.067,0.192-2.313,0.345-3.646,0.337c-1.334-0.028-2.755-0.291-4.177-0.386c-1.422-0.112-2.844-0.208-4.177-0.342
			c-1.333-0.116-2.577-0.253-3.644-0.368c-2.132-0.217-3.554-0.404-3.554-0.404L668.245,176.491z"/>
	</g>
	<g>
		<line x1="661.268" y1="219.195" x2="680.801" y2="230.882"/>
		<path d="M661.345,219.066c0,0,1.313,0.577,3.249,1.497c0.972,0.455,2.106,0.982,3.307,1.574c1.209,0.577,2.476,1.231,3.75,1.873
			c1.266,0.655,2.617,1.167,3.772,1.834c1.145,0.685,2.13,1.461,2.944,2.179c0.808,0.729,1.452,1.384,1.87,1.896
			c0.426,0.502,0.641,0.835,0.641,0.835l-0.154,0.258c0,0-0.396-0.032-1.038-0.169c-0.649-0.126-1.531-0.385-2.556-0.752
			c-1.017-0.378-2.167-0.88-3.312-1.564c-1.135-0.702-2.225-1.651-3.4-2.457c-1.167-0.819-2.343-1.626-3.423-2.419
			c-1.089-0.778-2.09-1.529-2.95-2.169c-1.726-1.272-2.854-2.156-2.854-2.156L661.345,219.066z"/>
	</g>
	<g>
		<polygon points="566.759,217.391 576.92,144.768 569.737,217.747 		"/>
	</g>
	<g>
		<polygon points="555.695,203.593 627.213,196.376 556.059,206.57 		"/>
	</g>
</g>
</svg>
